<svg width="21" height="21" viewBox="0 0 21 21" fill="none" xmlns="http://www.w3.org/2000/svg">
<g id="Icon / x">
<path id="Combined Shape" d="M19.0707 1.29289L18.3636 2V2L19.0707 1.29289ZM19.0707 2.70711L19.7779 3.41421V3.41421L19.0707 2.70711ZM17.6565 1.29289L16.9494 0.585785L16.9494 0.585786L17.6565 1.29289ZM10.1818 8.7676L9.47471 9.47471C9.86524 9.86524 10.4984 9.86524 10.8889 9.47471L10.1818 8.7676ZM2.70711 1.29289L3.41421 0.585786V0.585786L2.70711 1.29289ZM1.29289 1.29289L2 2L2 2L1.29289 1.29289ZM1.29289 2.70711L0.585786 3.41421H0.585786L1.29289 2.70711ZM8.7676 10.1818L9.47471 10.8889C9.86524 10.4984 9.86524 9.86524 9.47471 9.47471L8.7676 10.1818ZM1.29289 17.6565L0.585786 16.9494L0.585785 16.9494L1.29289 17.6565ZM1.29289 19.0707L2 18.3636H2L1.29289 19.0707ZM2.70711 19.0707L3.41421 19.7779H3.41421L2.70711 19.0707ZM10.1818 11.596L10.8889 10.8889C10.7014 10.7014 10.447 10.596 10.1818 10.596C9.9166 10.596 9.66225 10.7014 9.47471 10.8889L10.1818 11.596ZM17.6565 19.0707L16.9494 19.7779L16.9494 19.7779L17.6565 19.0707ZM19.0707 17.6565L19.7779 16.9494L19.7779 16.9494L19.0707 17.6565ZM11.596 10.1818L10.8889 9.47471C10.7014 9.66225 10.596 9.9166 10.596 10.1818C10.596 10.447 10.7014 10.7014 10.8889 10.8889L11.596 10.1818ZM18.3636 2V2L19.7779 3.41421C20.5589 2.63316 20.5589 1.36684 19.7779 0.585787L18.3636 2ZM18.3636 2L18.3636 2L19.7779 0.585787C18.9968 -0.195263 17.7305 -0.195261 16.9494 0.585785L18.3636 2ZM10.8889 9.47471L18.3636 2L16.9494 0.585786L9.47471 8.0605L10.8889 9.47471ZM2 2L9.47471 9.47471L10.8889 8.0605L3.41421 0.585786L2 2ZM2 2V2L3.41421 0.585786C2.63317 -0.195262 1.36684 -0.195262 0.585786 0.585787L2 2ZM2 2H2L0.585787 0.585786C-0.195262 1.36684 -0.195262 2.63317 0.585786 3.41421L2 2ZM9.47471 9.47471L2 2L0.585786 3.41421L8.0605 10.8889L9.47471 9.47471ZM2 18.3636L9.47471 10.8889L8.0605 9.47471L0.585786 16.9494L2 18.3636ZM2 18.3636L2 18.3636L0.585785 16.9494C-0.195261 17.7305 -0.195263 18.9968 0.585787 19.7779L2 18.3636ZM2 18.3636H2L0.585787 19.7779C1.36684 20.5589 2.63316 20.5589 3.41421 19.7779L2 18.3636ZM9.47471 10.8889L2 18.3636L3.41421 19.7779L10.8889 12.3031L9.47471 10.8889ZM18.3636 18.3636L10.8889 10.8889L9.47471 12.3031L16.9494 19.7779L18.3636 18.3636ZM18.3636 18.3636H18.3636L16.9494 19.7779C17.7305 20.5589 18.9968 20.5589 19.7779 19.7779L18.3636 18.3636ZM18.3636 18.3636V18.3636L19.7779 19.7779C20.5589 18.9968 20.5589 17.7305 19.7779 16.9494L18.3636 18.3636ZM10.8889 10.8889L18.3636 18.3636L19.7779 16.9494L12.3031 9.47471L10.8889 10.8889ZM18.3636 2L10.8889 9.47471L12.3031 10.8889L19.7779 3.41421L18.3636 2Z" fill="black"/>
</g>
</svg>
